<?xml version="1.0" encoding="utf-8"?>
<!-- Generator: Adobe Illustrator 16.0.0, SVG Export Plug-In . SVG Version: 6.00 Build 0)  -->
<!DOCTYPE svg PUBLIC "-//W3C//DTD SVG 1.1//EN" "http://www.w3.org/Graphics/SVG/1.1/DTD/svg11.dtd">
<svg version="1.1" id="Layer_9" xmlns="http://www.w3.org/2000/svg" xmlns:xlink="http://www.w3.org/1999/xlink" x="0px" y="0px"
	 width="1024px" height="1024px" viewBox="0 0 1024 1024" enable-background="new 0 0 1024 1024" xml:space="preserve">
<g>
	<g>
		<linearGradient id="SVGID_1_" gradientUnits="userSpaceOnUse" x1="512.0005" y1="960" x2="512.0004" y2="64">
			<stop  offset="0.3318" style="stop-color:#181818"/>
			<stop  offset="1" style="stop-color:#4A4A4A"/>
		</linearGradient>
		<circle fill-rule="evenodd" clip-rule="evenodd" fill="url(#SVGID_1_)" cx="512" cy="511.9995" r="448"/>
		<circle fill="none" stroke="#BCBEC0" stroke-width="5" stroke-miterlimit="10" cx="512" cy="511.9995" r="448"/>
	</g>
	<path fill="#F7941E" stroke="#F1F2F2" stroke-width="30" stroke-miterlimit="10" d="M788.8447,904.2354
		c0,6.9033-5.9023,12.501-13.1836,12.501H248.3389c-7.2808,0-13.1831-5.5977-13.1831-12.501V404.1738
		c0-6.9038,5.9023-12.501,13.1831-12.501h527.3223c7.2812,0,13.1836,5.5972,13.1836,12.501V904.2354z"/>
	<g>
		<path fill="#FBB040" d="M788.8447,384.9009c0,3.7393-5.9023,6.772-13.1836,6.772H248.3389c-7.2808,0-13.1831-3.0327-13.1831-6.772
			V114.0342c0-3.7397,5.9023-6.772,13.1831-6.772h527.3223c7.2812,0,13.1836,3.0322,13.1836,6.772V384.9009z"/>
		<path fill="none" stroke="#F1F2F2" stroke-width="30" stroke-miterlimit="10" d="M788.8447,384.9009
			c0,3.7393-5.9023,6.772-13.1836,6.772H248.3389c-7.2808,0-13.1831-3.0327-13.1831-6.772V114.0342
			c0-3.7397,5.9023-6.772,13.1831-6.772h527.3223c7.2812,0,13.1836,3.0322,13.1836,6.772V384.9009z"/>
	</g>
	<g>
		<g>
			<path fill="#414042" d="M195.6064,966.7402c-6.9033,0-12.5-5.5967-12.5-12.5v-75.0078c0-6.9033,5.5967-12.5,12.5-12.5h79.0986
				c6.9033,0,12.5,5.5967,12.5,12.5v75.0078c0,6.9033-5.5967,12.5-12.5,12.5H195.6064z"/>
			<path fill="#F1F2F2" d="M274.7051,879.2324v75.0078h-79.0986v-75.0078H274.7051 M274.7051,854.2324h-79.0986
				c-13.8071,0-25,11.1924-25,25v75.0078c0,13.8076,11.1929,25,25,25h79.0986c13.8071,0,25-11.1924,25-25v-75.0078
				C299.7051,865.4248,288.5122,854.2324,274.7051,854.2324L274.7051,854.2324z"/>
		</g>
		<g>
			<path fill="#414042" d="M749.2939,441.6768c-6.9033,0-12.5-5.5967-12.5-12.5v-75.0078c0-6.9033,5.5967-12.5,12.5-12.5h79.1016
				c6.9033,0,12.5,5.5967,12.5,12.5v75.0078c0,6.9033-5.5967,12.5-12.5,12.5H749.2939z"/>
			<path fill="#F1F2F2" d="M828.3955,354.1689v75.0078h-79.1016v-75.0078H828.3955 M828.3955,329.1689h-79.1016
				c-13.8076,0-25,11.1929-25,25v75.0078c0,13.8071,11.1924,25,25,25h79.1016c13.8076,0,25-11.1929,25-25v-75.0078
				C853.3955,340.3618,842.2031,329.1689,828.3955,329.1689L828.3955,329.1689z"/>
		</g>
		<g>
			<path fill="#414042" d="M195.6064,441.6782c-6.9033,0-12.5-5.5967-12.5-12.5v-75.0107c0-6.9033,5.5967-12.5,12.5-12.5h79.0986
				c6.9033,0,12.5,5.5967,12.5,12.5v75.0107c0,6.9033-5.5967,12.5-12.5,12.5H195.6064z"/>
			<path fill="#F1F2F2" d="M274.7051,354.1675v75.0107h-79.0986v-75.0107H274.7051 M274.7051,329.1675h-79.0986
				c-13.8071,0-25,11.1929-25,25v75.0107c0,13.8071,11.1929,25,25,25h79.0986c13.8071,0,25-11.1929,25-25v-75.0107
				C299.7051,340.3604,288.5122,329.1675,274.7051,329.1675L274.7051,329.1675z"/>
		</g>
		<g>
			<path fill="#414042" d="M749.2939,153.0317c-6.9033,0-12.5-5.5967-12.5-12.5V65.521c0-6.9033,5.5967-12.5,12.5-12.5h79.1016
				c6.9033,0,12.5,5.5967,12.5,12.5v75.0107c0,6.9033-5.5967,12.5-12.5,12.5H749.2939z"/>
			<path fill="#F1F2F2" d="M828.3955,65.521v75.0107h-79.1016V65.521H828.3955 M828.3955,40.521h-79.1016
				c-13.8076,0-25,11.1929-25,25v75.0107c0,13.8071,11.1924,25,25,25h79.1016c13.8076,0,25-11.1929,25-25V65.521
				C853.3955,51.7139,842.2031,40.521,828.3955,40.521L828.3955,40.521z"/>
		</g>
		<g>
			<path fill="#414042" d="M195.6064,172.4062c-6.9033,0-12.5-5.5967-12.5-12.5V84.8979c0-6.9033,5.5967-12.5,12.5-12.5h79.0986
				c6.9033,0,12.5,5.5967,12.5,12.5v75.0083c0,6.9033-5.5967,12.5-12.5,12.5H195.6064z"/>
			<path fill="#F1F2F2" d="M274.7051,84.8979v75.0083h-79.0986V84.8979H274.7051 M274.7051,59.8979h-79.0986
				c-13.8071,0-25,11.1929-25,25v75.0083c0,13.8071,11.1929,25,25,25h79.0986c13.8071,0,25-11.1929,25-25V84.8979
				C299.7051,71.0908,288.5122,59.8979,274.7051,59.8979L274.7051,59.8979z"/>
		</g>
		<g>
			<path fill="#BE1E2D" d="M749.2939,966.7402c-6.9033,0-12.5-5.5967-12.5-12.5v-75.0078c0-6.9033,5.5967-12.5,12.5-12.5h79.1025
				c6.9033,0,12.5,5.5967,12.5,12.5v75.0078c0,6.9033-5.5967,12.5-12.5,12.5H749.2939z"/>
			<path fill="#F1F2F2" d="M828.3965,879.2324v75.0078h-79.1025v-75.0078H828.3965 M828.3965,854.2324h-79.1025
				c-13.8076,0-25,11.1924-25,25v75.0078c0,13.8076,11.1924,25,25,25h79.1025c13.8066,0,25-11.1924,25-25v-75.0078
				C853.3965,865.4248,842.2031,854.2324,828.3965,854.2324L828.3965,854.2324z"/>
		</g>
	</g>
	<g>
		<path fill="#242424" d="M358.0527,566.0879h-80.5371v-50.3691h212.8945v50.3691H417.646v243.6582h-59.5933V566.0879z"/>
		<path fill="#242424" d="M593.1855,759.376h153.3027v50.3701H533.5938V515.7188h212.8945v50.3691H593.1855V759.376z"/>
	</g>
</g>
</svg>
